<?xml version="1.0" encoding="UTF-8" standalone="no"?>
<!-- Created with Inkscape (http://www.inkscape.org/) -->

<svg
   xmlns:dc="http://purl.org/dc/elements/1.1/"
   xmlns:cc="http://creativecommons.org/ns#"
   xmlns:rdf="http://www.w3.org/1999/02/22-rdf-syntax-ns#"
   xmlns:svg="http://www.w3.org/2000/svg"
   xmlns="http://www.w3.org/2000/svg"
   xmlns:xlink="http://www.w3.org/1999/xlink"
   xmlns:sodipodi="http://sodipodi.sourceforge.net/DTD/sodipodi-0.dtd"
   xmlns:inkscape="http://www.inkscape.org/namespaces/inkscape"
   width="211.17357mm"
   height="191.21361mm"
   viewBox="0 0 748.2528 677.52853"
   id="svg2"
   version="1.1"
   inkscape:version="0.91 r13725"
   sodipodi:docname="cyberscooty-photo.svg">
  <defs
     id="defs4">
    <linearGradient
       inkscape:collect="always"
       id="linearGradient17968">
      <stop
         style="stop-color:#99cb99;stop-opacity:1"
         offset="0"
         id="stop17970" />
      <stop
         id="stop17976"
         offset="0.16549854"
         style="stop-color:#97ca97;stop-opacity:1;" />
      <stop
         style="stop-color:#73b774;stop-opacity:1;"
         offset="0.50009555"
         id="stop17978" />
      <stop
         style="stop-color:#71b672;stop-opacity:1"
         offset="1"
         id="stop17972" />
    </linearGradient>
    <linearGradient
       inkscape:collect="always"
       id="linearGradient14958">
      <stop
         style="stop-color:#808080;stop-opacity:1"
         offset="0"
         id="stop14960" />
      <stop
         id="stop14966"
         offset="0.39288405"
         style="stop-color:#fcfcfc;stop-opacity:1;" />
      <stop
         style="stop-color:#f2f2f2;stop-opacity:1"
         offset="0.61230803"
         id="stop14968" />
      <stop
         style="stop-color:#ffffff;stop-opacity:1"
         offset="1"
         id="stop14962" />
    </linearGradient>
    <linearGradient
       inkscape:collect="always"
       id="linearGradient14938">
      <stop
         style="stop-color:#77c7da;stop-opacity:0.9996863"
         offset="0"
         id="stop14940" />
      <stop
         style="stop-color:#d2edf4;stop-opacity:1"
         offset="1"
         id="stop14942" />
    </linearGradient>
    <filter
       inkscape:collect="always"
       style="color-interpolation-filters:sRGB"
       id="filter15026"
       x="-0.010465385"
       width="1.0209308"
       y="-0.014062015"
       height="1.028124">
      <feGaussianBlur
         inkscape:collect="always"
         stdDeviation="2.2905209"
         id="feGaussianBlur15028" />
    </filter>
    <linearGradient
       inkscape:collect="always"
       xlink:href="#linearGradient14938"
       id="linearGradient18051"
       gradientUnits="userSpaceOnUse"
       x1="1101.4286"
       y1="795.21936"
       x2="1485.7142"
       y2="543.79077" />
    <radialGradient
       inkscape:collect="always"
       xlink:href="#linearGradient14958"
       id="radialGradient18053"
       gradientUnits="userSpaceOnUse"
       gradientTransform="matrix(0.5240521,-0.39925919,0.51448049,0.67528709,208.24794,789.75455)"
       cx="1262.4279"
       cy="620.15277"
       fx="1262.4279"
       fy="620.15277"
       r="116.2344" />
    <radialGradient
       inkscape:collect="always"
       xlink:href="#linearGradient14958"
       id="radialGradient18055"
       gradientUnits="userSpaceOnUse"
       gradientTransform="matrix(1.0472041,8.9357401e-4,-7.2815912e-4,0.85334788,-43.687162,105.81108)"
       cx="1370.8003"
       cy="704.34534"
       fx="1370.8003"
       fy="704.34534"
       r="118.20697" />
    <radialGradient
       inkscape:collect="always"
       xlink:href="#linearGradient14958"
       id="radialGradient18057"
       gradientUnits="userSpaceOnUse"
       gradientTransform="matrix(1,0,0,0.84894218,0,93.678929)"
       cx="1262.4279"
       cy="620.15277"
       fx="1262.4279"
       fy="620.15277"
       r="116.2344" />
    <linearGradient
       inkscape:collect="always"
       xlink:href="#linearGradient17968"
       id="linearGradient18071"
       gradientUnits="userSpaceOnUse"
       gradientTransform="translate(818.57143,-71.428571)"
       x1="461.63971"
       y1="1351.8724"
       x2="452.04327"
       y2="1523.0933" />
  </defs>
  <sodipodi:namedview
     id="base"
     pagecolor="#ffffff"
     bordercolor="#666666"
     borderopacity="1.0"
     inkscape:pageopacity="0.0"
     inkscape:pageshadow="2"
     inkscape:zoom="0.35"
     inkscape:cx="434.616"
     inkscape:cy="81.241775"
     inkscape:document-units="px"
     inkscape:current-layer="layer1"
     showgrid="false"
     showguides="true"
     inkscape:guide-bbox="true"
     fit-margin-top="0"
     fit-margin-left="0"
     fit-margin-right="0"
     fit-margin-bottom="0"
     inkscape:window-width="1920"
     inkscape:window-height="1017"
     inkscape:window-x="-8"
     inkscape:window-y="-8"
     inkscape:window-maximized="1" />
  <metadata
     id="metadata7">
    <rdf:RDF>
      <cc:Work
         rdf:about="">
        <dc:format>image/svg+xml</dc:format>
        <dc:type
           rdf:resource="http://purl.org/dc/dcmitype/StillImage" />
        <dc:title></dc:title>
      </cc:Work>
    </rdf:RDF>
  </metadata>
  <g
     inkscape:label="Calque 1"
     inkscape:groupmode="layer"
     id="layer1"
     transform="translate(12.312876,-34.999074)">
    <g
       id="g18059"
       transform="matrix(0.96512324,-0.26179599,0.26179599,0.96512324,-1295.6439,-611.72246)"
       inkscape:transform-center-x="-310.92335"
       inkscape:transform-center-y="118.60956">
      <rect
         ry="5.0507627"
         rx="5.0507627"
         style="opacity:1;fill:#666666;fill-opacity:1;fill-rule:nonzero;stroke:none;stroke-width:3;stroke-linecap:round;stroke-linejoin:round;stroke-miterlimit:4;stroke-dasharray:none;stroke-dashoffset:0;stroke-opacity:1;filter:url(#filter15026)"
         id="rect18061"
         width="525.2793"
         height="390.92905"
         x="1042.0278"
         y="1102.2229" />
      <rect
         y="1095.0452"
         x="1034.2229"
         height="390.92905"
         width="525.2793"
         id="rect18063"
         style="opacity:1;fill:#ffffff;fill-opacity:1;fill-rule:nonzero;stroke:#808080;stroke-width:3;stroke-linecap:round;stroke-linejoin:round;stroke-miterlimit:4;stroke-dasharray:none;stroke-dashoffset:0;stroke-opacity:1" />
      <rect
         style="opacity:1;fill:#9db8d2;fill-opacity:1;fill-rule:nonzero;stroke:none;stroke-width:2.61430025;stroke-linecap:round;stroke-linejoin:round;stroke-miterlimit:4;stroke-dasharray:none;stroke-dashoffset:0;stroke-opacity:1"
         id="rect18065"
         width="470.10025"
         height="331.71576"
         x="1059.7921"
         y="1123.1366" />
      <path
         style="fill:#48a349;fill-opacity:1;fill-rule:evenodd;stroke:none;stroke-width:1px;stroke-linecap:butt;stroke-linejoin:miter;stroke-opacity:1"
         d="m 1370.9062,1241.4844 c -109.2987,0.8021 -195.5333,62.0848 -311.1132,29.2148 l 0,184.1524 470.0996,0 0,-167.9551 c -60.1332,-34.7831 -111.7188,-45.759 -158.9864,-45.4121 z"
         id="path18067"
         inkscape:connector-curvature="0" />
      <path
         style="fill:url(#linearGradient18071);fill-opacity:1;fill-rule:evenodd;stroke:none;stroke-width:1px;stroke-linecap:butt;stroke-linejoin:miter;stroke-opacity:1"
         d="m 1370.9062,1253.1016 c -109.2987,0.8021 -195.5333,62.0848 -311.1132,29.2148 l 0,172.5352 470.0996,0 0,-156.3379 c -60.1332,-34.7831 -111.7188,-45.759 -158.9864,-45.4121 z"
         id="path18069"
         inkscape:connector-curvature="0" />
    </g>
    <g
       transform="matrix(0.96700967,0.25473968,-0.25473968,0.96700967,-662.95676,-528.77382)"
       id="g18013"
       inkscape:transform-center-x="-206.41701"
       inkscape:transform-center-y="260.19863">
      <rect
         y="473.65143"
         x="1039.1707"
         height="390.92905"
         width="525.2793"
         id="rect18015"
         style="opacity:1;fill:#666666;fill-opacity:1;fill-rule:nonzero;stroke:none;stroke-width:3;stroke-linecap:round;stroke-linejoin:round;stroke-miterlimit:4;stroke-dasharray:none;stroke-dashoffset:0;stroke-opacity:1;filter:url(#filter15026)"
         rx="5.0507627"
         ry="5.0507627" />
      <rect
         style="opacity:1;fill:#ffffff;fill-opacity:1;fill-rule:nonzero;stroke:#808080;stroke-width:3;stroke-linecap:round;stroke-linejoin:round;stroke-miterlimit:4;stroke-dasharray:none;stroke-dashoffset:0;stroke-opacity:1"
         id="rect18017"
         width="525.2793"
         height="390.92905"
         x="1031.3657"
         y="466.47372" />
      <rect
         y="494.56516"
         x="1056.9349"
         height="331.71576"
         width="470.10025"
         id="rect18019"
         style="opacity:1;fill:url(#linearGradient18051);fill-opacity:1;fill-rule:nonzero;stroke:none;stroke-width:2.61430025;stroke-linecap:round;stroke-linejoin:round;stroke-miterlimit:4;stroke-dasharray:none;stroke-dashoffset:0;stroke-opacity:1" />
      <path
         inkscape:connector-curvature="0"
         style="fill:#008000;fill-opacity:1;fill-rule:evenodd;stroke:none;stroke-width:1px;stroke-linecap:butt;stroke-linejoin:miter;stroke-opacity:1"
         d="m 1208.4238,560.03906 c -12.2028,13.75536 -18.3321,24.73546 -23.2324,40.80274 l -14.832,-8.22071 c -5.3222,10.06094 -8.8946,20.67542 -4.0196,33.96485 l -16.2382,-2.79297 c 3.8608,42.9542 12.9271,45.15118 22.83,61.25976 l -24.0371,-1.73632 c 11.8539,29.48142 33.0908,62.1252 58.336,81.89648 l -26.3145,1.06445 c 2.5853,6.58384 5.5598,12.93211 8.9336,19.03907 -6.5108,-3.77853 -13.1108,-7.06574 -19.8242,-9.7461 l 1.0566,8.50586 c -4.6918,-6.25569 -13.8676,-9.10103 -23.2148,-11.8164 l 3.6094,8.91796 c -4.2022,-4.35583 -12.4206,-7.20046 -20.9356,-9.93359 l 4.3516,7.26758 c -9.3409,-1.80137 -19.8168,-5.49834 -26.2559,-2.45313 2.324,9.40075 5.2318,15.84236 10.668,24.07227 l -7.8262,0.88867 c 2.7482,5.81616 6.2399,11.35196 13.334,15.5332 l -5.916,3.59571 c 2.7555,2.4081 5.1643,4.40687 7.3457,6.13281 l 305.3281,0 c 14.7355,-8.74683 27.8816,-19.08342 38.7227,-31.72461 l -9.2852,-5 c 8.3637,-1.17273 14.9295,-10.43216 21.4277,-20 l -10.7128,-2.14258 c 6.1905,-1.97543 12.3799,-10.04698 18.5703,-18.57031 l -9.2852,0 c 5.5427,-10.2381 13.5068,-20.47674 12.8574,-30.71484 -10.7143,-4.09468 -18.5728,-5.2727 -29.2871,-4.64258 l 2.1446,-10.35742 c -7.1429,-0.90967 -14.2868,-0.68835 -21.4297,5 l -1.4278,-10 c -25.3779,11.50093 -24.9681,17.22148 -32.8574,26.42773 l -3.5723,-14.28516 c -15.646,13.22015 -31.4077,32.55201 -38.5703,51.42774 l -5.7148,-15 c -11.3546,9.44544 -20.4149,20.72682 -26.9727,34.00976 l 10.7832,-39.38281 c -3.9261,-39.77611 -13.4923,-76.90815 -33.3398,-109.2207 l -12.8184,11.21094 c 2.7731,-12.87538 -7.9378,-27.06326 -19.1621,-41.30274 l -9.1855,14.70899 c 0.341,-10.07181 -8.7424,-23.12678 -18.5215,-36.40235 l -5.0898,13.65821 c -12.7842,-13.16201 -24.2409,-29.88493 -40.42,-33.93946 z"
         id="path18021" />
      <path
         inkscape:connector-curvature="0"
         style="color:#000000;font-style:normal;font-variant:normal;font-weight:normal;font-stretch:normal;font-size:medium;line-height:normal;font-family:sans-serif;text-indent:0;text-align:start;text-decoration:none;text-decoration-line:none;text-decoration-style:solid;text-decoration-color:#000000;letter-spacing:normal;word-spacing:normal;text-transform:none;direction:ltr;block-progression:tb;writing-mode:lr-tb;baseline-shift:baseline;text-anchor:start;white-space:normal;clip-rule:nonzero;display:inline;overflow:visible;visibility:visible;opacity:1;isolation:auto;mix-blend-mode:normal;color-interpolation:sRGB;color-interpolation-filters:linearRGB;solid-color:#000000;solid-opacity:1;fill:#066706;fill-opacity:1;fill-rule:evenodd;stroke:none;stroke-width:5;stroke-linecap:butt;stroke-linejoin:miter;stroke-miterlimit:4;stroke-dasharray:none;stroke-dashoffset:0;stroke-opacity:1;color-rendering:auto;image-rendering:auto;shape-rendering:auto;text-rendering:auto;enable-background:accumulate"
         d="m 1371.3887,681.5918 c -39.7707,27.14398 -69.4838,69.25877 -75.1797,144.68945 l 5.0098,0 c 5.6323,-74.02132 34.2974,-114.1535 72.9882,-140.56055 l -2.8183,-4.1289 z"
         id="path18023" />
      <path
         inkscape:connector-curvature="0"
         style="color:#000000;font-style:normal;font-variant:normal;font-weight:normal;font-stretch:normal;font-size:medium;line-height:normal;font-family:sans-serif;text-indent:0;text-align:start;text-decoration:none;text-decoration-line:none;text-decoration-style:solid;text-decoration-color:#000000;letter-spacing:normal;word-spacing:normal;text-transform:none;direction:ltr;block-progression:tb;writing-mode:lr-tb;baseline-shift:baseline;text-anchor:start;white-space:normal;clip-rule:nonzero;display:inline;overflow:visible;visibility:visible;opacity:1;isolation:auto;mix-blend-mode:normal;color-interpolation:sRGB;color-interpolation-filters:linearRGB;solid-color:#000000;solid-opacity:1;fill:#066706;fill-opacity:1;fill-rule:evenodd;stroke:none;stroke-width:5;stroke-linecap:butt;stroke-linejoin:miter;stroke-miterlimit:4;stroke-dasharray:none;stroke-dashoffset:0;stroke-opacity:1;color-rendering:auto;image-rendering:auto;shape-rendering:auto;text-rendering:auto;enable-background:accumulate"
         d="m 1267.1094,620.32031 -4.7969,1.41407 c 19.7333,66.9865 27.4402,135.14343 22.916,204.54687 l 5.0098,0 c 4.5159,-69.87169 -3.2665,-138.53586 -23.1289,-205.96094 z"
         id="path18025" />
      <path
         inkscape:connector-curvature="0"
         style="color:#000000;font-style:normal;font-variant:normal;font-weight:normal;font-stretch:normal;font-size:medium;line-height:normal;font-family:sans-serif;text-indent:0;text-align:start;text-decoration:none;text-decoration-line:none;text-decoration-style:solid;text-decoration-color:#000000;letter-spacing:normal;word-spacing:normal;text-transform:none;direction:ltr;block-progression:tb;writing-mode:lr-tb;baseline-shift:baseline;text-anchor:start;white-space:normal;clip-rule:nonzero;display:inline;overflow:visible;visibility:visible;opacity:1;isolation:auto;mix-blend-mode:normal;color-interpolation:sRGB;color-interpolation-filters:linearRGB;solid-color:#000000;solid-opacity:1;fill:#066706;fill-opacity:1;fill-rule:evenodd;stroke:none;stroke-width:5;stroke-linecap:butt;stroke-linejoin:miter;stroke-miterlimit:4;stroke-dasharray:none;stroke-dashoffset:0;stroke-opacity:1;color-rendering:auto;image-rendering:auto;shape-rendering:auto;text-rendering:auto;enable-background:accumulate"
         d="m 1206.3477,694.00195 c -4.8546,0.0997 -9.7465,1.31644 -14.5645,3.44922 -11.0127,4.87494 -21.9253,14.26967 -32.9336,25.90235 l 3.6309,3.4375 c 10.7913,-11.40336 21.3887,-20.36861 31.3261,-24.76758 9.9375,-4.39897 18.9285,-4.48949 28.0293,1.70508 17.1379,11.66508 34.2959,47.64718 48.8457,122.55273 l 5.0977,0 c -14.5911,-75.98727 -31.3584,-113.22853 -51.1289,-126.68555 -5.2276,-3.55823 -10.6915,-5.31246 -16.2246,-5.56836 -0.6917,-0.032 -1.3846,-0.0396 -2.0781,-0.0254 z"
         id="path18027" />
      <g
         id="g18029"
         transform="matrix(0.85826748,0,0,0.85826748,137.23763,117.20871)">
        <path
           sodipodi:nodetypes="ccscccsccscscscscsc"
           inkscape:connector-curvature="0"
           id="path18031"
           d="m 1179.8028,690.17422 c -54.6565,-135.6142 40.2123,-59.64708 8.1039,-1.01081 -6.2799,-27.31179 9.1649,-58.71734 20.7223,-62.11685 13.7987,-4.05877 26.0837,32.35749 -11.3983,70.27865 71.3611,-88.01308 90.5234,10.77168 2.1357,9.59756 78.9584,-40.51772 126.8154,46.62575 -1.5349,6.3327 51.1162,10.54115 75.0494,47.9761 68.2377,56.71729 -6.2121,7.97177 -38.1244,-6.33989 -66.563,-51.10974 71.6281,64.26362 25.607,140.6671 -5.8274,-1.54581 23.8649,35.16943 21.4329,71.0084 11.604,79.28302 -10.6189,8.93966 -29.4431,-13.56924 -21.0535,-83.53283 10.771,44.55194 -21.1406,74.30785 -32.7218,66.3863 -10.7331,-7.34145 -6.9549,-38.58049 27.5947,-70.78633 -15.3201,38.47067 -50.532,41.48565 -58.5936,30.03713 -7.3411,-10.42501 9.3164,-33.74492 54.9638,-35.57795 -29.9874,14.23763 -69.417,-6.17915 -72.112,-19.35895 -2.5544,-12.49179 29.6064,-18.28317 73.3135,11.03535 -44.9755,-22.79005 -58.5674,-57.85459 -49.4365,-64.69518 8.7366,-6.54513 38.9632,13.55237 52.5654,60.06645 z"
           style="fill:#808080;fill-opacity:1;fill-rule:nonzero;stroke:none;stroke-width:1px;stroke-linecap:butt;stroke-linejoin:miter;stroke-opacity:1" />
        <path
           style="fill:url(#radialGradient18053);fill-opacity:1;fill-rule:nonzero;stroke:none;stroke-width:1px;stroke-linecap:butt;stroke-linejoin:miter;stroke-opacity:1"
           d="m 1177.7555,689.04008 c -54.6565,-135.61419 40.2123,-59.64708 8.1039,-1.0108 -6.2799,-27.31179 9.1649,-58.71735 20.7223,-62.11685 13.7987,-4.05878 26.0837,32.35748 -11.3982,70.27858 71.361,-88.01302 90.5233,10.77175 2.1356,9.59756 78.9584,-40.51766 126.8154,46.62581 -1.5349,6.33277 51.1162,10.54115 75.0495,47.97603 68.2377,56.71728 -6.2121,7.97177 -38.1244,-6.33988 -66.563,-51.10979 71.6281,64.26367 25.607,140.66715 -5.8274,-1.54576 23.8649,35.16943 21.4329,71.0084 11.604,79.28302 -10.6189,8.93966 -29.4431,-13.56923 -21.0535,-83.53283 10.771,44.55195 -21.1406,74.30785 -32.7218,66.3863 -10.7331,-7.34145 -6.9549,-38.58048 27.5947,-70.78633 -15.3201,38.47067 -50.532,41.48566 -58.5936,30.03713 -7.3411,-10.425 9.3164,-33.74492 54.9638,-35.57794 -29.9874,14.23762 -69.417,-6.17916 -72.112,-19.35895 -2.5543,-12.49186 29.6064,-18.28318 73.3135,11.03535 -44.9754,-22.79012 -58.5674,-57.85459 -49.4365,-64.69518 8.7366,-6.54514 38.9632,13.55236 52.5654,60.06644 z"
           id="path18033"
           inkscape:connector-curvature="0"
           sodipodi:nodetypes="ccscccsccscscscscsc" />
        <ellipse
           transform="matrix(0.79544533,-0.60602535,0.60602535,0.79544533,0,0)"
           style="opacity:1;fill:#efdf01;fill-opacity:1;fill-rule:nonzero;stroke:none;stroke-width:1.07392013;stroke-linecap:round;stroke-linejoin:round;stroke-miterlimit:4;stroke-dasharray:none;stroke-dashoffset:0;stroke-opacity:1"
           id="ellipse18035"
           cx="518.02911"
           cy="1282.2898"
           rx="21.528049"
           ry="27.498308" />
      </g>
      <g
         id="g18037"
         transform="matrix(0.9240478,0,0,1,106.47005,-4.0406102)">
        <path
           sodipodi:nodetypes="ccscccsccscscscscsc"
           inkscape:connector-curvature="0"
           id="path18039"
           d="m 1403.5985,688.25833 c 126.4604,-116.34214 119.6212,21.93868 9.4205,8.81746 30.1773,-18.05126 87.4553,-13.01745 103.5021,-1.22431 19.159,14.08039 -17.1817,42.59989 -105.1019,15.09278 188.487,46.05506 75.8002,107.30387 -10.6754,6.26234 132.698,73.66471 64.1225,162.91561 -9.9766,0.78211 36.8549,62.37213 10.758,104.55252 -7.6874,100.29211 -16.8218,-3.88537 -29.5182,-45.91175 1.8754,-96.14741 -14.3769,107.16307 -162.1365,85.30561 -3.7425,-7.24791 -23.143,41.19793 -73.3728,52.74125 -94.2014,44.86137 -22.5023,-8.51315 -11.2271,-38.9203 90.458,-57.31057 -48.7015,30.04544 -120.1811,5.61621 -121.1501,-10.72471 -0.8979,-15.14419 44.5369,-23.3189 121.9124,3.13389 -66.5781,-2.07074 -105.6741,-40.93301 -98.4325,-54.67743 6.5942,-12.51578 54.2942,-2.87357 102.2082,48.33482 -48.8625,-28.43633 -60.9027,-81.454 -46.006,-89.78331 14.1192,-7.89445 53.8795,26.38748 58.306,87.82675 -14.3986,-60.27575 18.8371,-89.74269 37.0573,-82.08447 17.4333,7.32752 20.7325,49.74603 -27.7661,83.79649 z"
           style="fill:#808080;fill-opacity:1;fill-rule:nonzero;stroke:none;stroke-width:1px;stroke-linecap:butt;stroke-linejoin:miter;stroke-opacity:1" />
        <path
           style="fill:url(#radialGradient18055);fill-opacity:1;fill-rule:nonzero;stroke:none;stroke-width:1px;stroke-linecap:butt;stroke-linejoin:miter;stroke-opacity:1"
           d="m 1402.7972,685.85459 c 126.4604,-116.34214 119.6212,21.93869 9.4205,8.81747 30.1774,-18.05127 87.4554,-13.01746 103.5021,-1.22432 19.1591,14.08039 -17.1817,42.59989 -105.1019,15.09278 188.487,46.05506 75.8002,107.30387 -10.6754,6.26234 132.698,73.66471 64.1225,162.91561 -9.9766,0.78211 36.8549,62.37213 10.758,104.55252 -7.6874,100.29211 -16.8218,-3.88537 -29.5182,-45.91175 1.8755,-96.1474 -14.377,107.16306 -162.1366,85.30561 -3.7425,-7.24792 -23.143,41.19793 -73.3729,52.74125 -94.2014,44.86137 -22.5024,-8.51315 -11.2272,-38.9203 90.4579,-57.31057 -48.7015,30.04544 -120.1811,5.61621 -121.15,-10.72471 -0.898,-15.14419 44.5369,-23.3189 121.9123,3.13389 -66.5781,-2.07074 -105.6741,-40.93301 -98.4325,-54.67743 6.5942,-12.51578 54.2942,-2.87357 102.2082,48.33482 -48.8624,-28.43633 -60.9027,-81.454 -46.0059,-89.78331 14.1191,-7.89445 53.8794,26.38748 58.3059,87.82675 -14.3985,-60.27574 18.8371,-89.74269 37.0574,-82.08447 17.4332,7.32752 20.7325,49.74603 -27.7662,83.79649 z"
           id="path18041"
           inkscape:connector-curvature="0"
           sodipodi:nodetypes="ccscccsccscscscscsc" />
        <ellipse
           transform="matrix(0.92386556,0.38271716,-0.41351716,0.91049632,0,0)"
           style="opacity:1;fill:#efdf01;fill-opacity:1;fill-rule:nonzero;stroke:none;stroke-width:1.07392013;stroke-linecap:round;stroke-linejoin:round;stroke-miterlimit:4;stroke-dasharray:none;stroke-dashoffset:0;stroke-opacity:1"
           id="ellipse18043"
           cx="1559.5944"
           cy="119.43527"
           rx="37.30072"
           ry="30.418665" />
      </g>
      <path
         sodipodi:nodetypes="ccscccsccscscscscsc"
         inkscape:connector-curvature="0"
         id="path18045"
         d="m 1264.6429,603.25507 c 58.7559,-140.99689 103.4192,-23.07634 10.7143,4.10714 17.541,-25.53083 65.078,-41.15226 82.1592,-36.85235 20.394,5.13388 1.7284,41.54599 -78.4092,48.99521 167.1209,-26.76297 99.3881,63.42776 -6.25,8.92857 132.6043,15.6212 110.2255,113.94164 -7.6786,4.10714 52.0206,39.36267 46.482,83.64423 30.2168,86.46932 -14.8334,2.5764 -40.1991,-28.14743 -33.3529,-80.99392 27.3685,94.52667 -98.4779,127.41152 -5.6139,-4.76111 -3.5373,42.43805 -39.4408,69.47218 -58.9197,70.09761 -21.0444,0.6757 -23.0673,-28.63687 51.4197,-79.20476 -27.9773,41.96611 -93.8784,46.29612 -100.5747,32.97642 -6.2058,-12.34426 27.0918,-34.90352 98.4318,-39.58356 -53.8853,21.31695 -99.1731,2.3759 -98.3755,-11.61633 0.7262,-12.7414 42.2895,-21.19624 99.0898,5.00919 -49.3032,-6.84787 -78.1291,-46.98364 -69.2594,-59.10073 8.4068,-11.48454 52.5646,3.39901 78.3666,53.20787 -33.3388,-45.38453 -17.4947,-81.51348 -0.1777,-81.42124 16.5691,0.0883 34.5772,34.39284 8.2134,79.63553 z"
         style="fill:#808080;fill-opacity:1;fill-rule:nonzero;stroke:none;stroke-width:1px;stroke-linecap:butt;stroke-linejoin:miter;stroke-opacity:1" />
      <path
         style="fill:url(#radialGradient18057);fill-opacity:1;fill-rule:nonzero;stroke:none;stroke-width:1px;stroke-linecap:butt;stroke-linejoin:miter;stroke-opacity:1"
         d="m 1263.2143,601.11221 c 58.7559,-140.99689 103.4192,-23.07634 10.7143,4.10714 17.541,-25.53083 65.078,-41.15226 82.1592,-36.85235 20.394,5.13388 1.7284,41.54599 -78.4092,48.99521 167.1209,-26.76297 99.3881,63.42776 -6.25,8.92857 132.6043,15.6212 110.2255,113.94164 -7.6786,4.10714 52.0206,39.36267 46.482,83.64423 30.2168,86.46932 -14.8334,2.5764 -40.1991,-28.14743 -33.3529,-80.99392 27.3685,94.52667 -98.4779,127.41152 -5.6139,-4.76111 -3.5373,42.43805 -39.4408,69.47218 -58.9197,70.09761 -21.0444,0.6757 -23.0673,-28.63687 51.4197,-79.20476 -27.9773,41.96611 -93.8784,46.29612 -100.5747,32.97642 -6.2058,-12.34426 27.0918,-34.90352 98.4318,-39.58356 -53.8853,21.31695 -99.1731,2.3759 -98.3755,-11.61633 0.7262,-12.7414 42.2895,-21.19624 99.0898,5.00919 -49.3032,-6.84787 -78.1291,-46.98364 -69.2594,-59.10073 8.4068,-11.48454 52.5646,3.39901 78.3666,53.20787 -33.3388,-45.38453 -17.4947,-81.51348 -0.1777,-81.42124 16.5691,0.0883 34.5772,34.39284 8.2134,79.63553 z"
         id="path18047"
         inkscape:connector-curvature="0"
         sodipodi:nodetypes="ccscccsccscscscscsc" />
      <ellipse
         style="opacity:1;fill:#efdf01;fill-opacity:1;fill-rule:nonzero;stroke:none;stroke-width:1.07392013;stroke-linecap:round;stroke-linejoin:round;stroke-miterlimit:4;stroke-dasharray:none;stroke-dashoffset:0;stroke-opacity:1"
         id="ellipse18049"
         cx="1261.3392"
         cy="621.55859"
         rx="32.676876"
         ry="27.498308" />
    </g>
  </g>
</svg>
